<svg width="25" height="24" viewBox="0 0 25 24" fill="none" xmlns="http://www.w3.org/2000/svg">
<path d="M7.30005 18V16M12.3 18V15M17.3 18V13M2.80005 12C2.80005 7.522 2.80005 5.282 4.19105 3.891C5.58205 2.5 7.82105 2.5 12.3 2.5C16.778 2.5 19.018 2.5 20.409 3.891C21.8 5.282 21.8 7.521 21.8 12C21.8 16.478 21.8 18.718 20.409 20.109C19.018 21.5 16.779 21.5 12.3 21.5C7.82205 21.5 5.58205 21.5 4.19105 20.109C2.80005 18.718 2.80005 16.479 2.80005 12Z" stroke="#676D75" stroke-width="1.5" stroke-linecap="round" stroke-linejoin="round"/>
<path d="M6.29199 11.486C8.44699 11.558 13.334 11.233 16.114 6.82097M14.292 6.28797L16.168 5.98597C16.396 5.95697 16.732 6.13797 16.815 6.35297L17.31 7.99097" stroke="#676D75" stroke-width="1.5" stroke-linecap="round" stroke-linejoin="round"/>
</svg>
