<svg width="25" height="24" viewBox="0 0 25 24" fill="none" xmlns="http://www.w3.org/2000/svg">
<g clip-path="url(#clip0_70_688)">
<path d="M8.66299 18.8571C8.86526 18.864 9.06684 18.83 9.25572 18.7573C9.4446 18.6846 9.61692 18.5746 9.76243 18.434C9.90793 18.2933 10.0236 18.1248 10.1027 17.9385C10.1817 17.7521 10.2224 17.5518 10.2224 17.3494C10.2224 17.147 10.1817 16.9467 10.1027 16.7604C10.0236 16.5741 9.90793 16.4056 9.76243 16.2649C9.61692 16.1242 9.4446 16.0142 9.25572 15.9415C9.06684 15.8688 8.86526 15.8349 8.66299 15.8417C8.26289 15.8417 7.87918 16.0006 7.59627 16.2836C7.31336 16.5665 7.15442 16.9502 7.15442 17.3503C7.15442 17.7504 7.31336 18.1341 7.59627 18.417C7.87918 18.6999 8.26289 18.8589 8.66299 18.8589V18.8571ZM15.4464 16.9731C15.8465 16.9731 16.2302 16.8142 16.5131 16.5313C16.7961 16.2484 16.955 15.8647 16.955 15.4646C16.955 15.0645 16.7961 14.6808 16.5131 14.3978C16.2302 14.1149 15.8465 13.956 15.4464 13.956C15.0463 13.956 14.6626 14.1149 14.3797 14.3978C14.0968 14.6808 13.9378 15.0645 13.9378 15.4646C13.9378 15.8647 14.0968 16.2484 14.3797 16.5313C14.6626 16.8142 15.0463 16.9731 15.4464 16.9731Z" stroke="#676D75" stroke-linecap="round" stroke-linejoin="round"/>
<path d="M10.1715 17.3485V10.8668L16.9549 9.2691V15.468" stroke="#676D75" stroke-linecap="round" stroke-linejoin="round"/>
<path d="M1.55725 21V2.99999C1.55725 2.54533 1.73786 2.10929 2.05935 1.7878C2.38084 1.46631 2.81688 1.2857 3.27154 1.2857H9.59725C9.98885 1.27429 10.3725 1.39736 10.6845 1.63441C10.9964 1.87146 11.2177 2.2082 11.3115 2.58856L11.843 4.71427H22.1287C22.5833 4.71427 23.0194 4.89488 23.3409 5.21637C23.6624 5.53787 23.843 5.9739 23.843 6.42856V21C23.843 21.4546 23.6624 21.8907 23.3409 22.2122C23.0194 22.5337 22.5833 22.7143 22.1287 22.7143H3.27154C2.81688 22.7143 2.38084 22.5337 2.05935 22.2122C1.73786 21.8907 1.55725 21.4546 1.55725 21Z" stroke="#676D75" stroke-linecap="round" stroke-linejoin="round"/>
</g>
<defs>
<clipPath id="clip0_70_688">
<rect width="24" height="24" fill="white" transform="translate(0.700073)"/>
</clipPath>
</defs>
</svg>
