<svg width="26" height="26" viewBox="0 0 26 26" fill="none" xmlns="http://www.w3.org/2000/svg">
<rect x="0.5" y="0.5" width="25" height="25" rx="12.5" fill="#E6E6F0"/>
<rect x="0.5" y="0.5" width="25" height="25" rx="12.5" stroke="#EBEBEB"/>
<g clip-path="url(#clip0_227_945)">
<mask id="mask0_227_945" style="mask-type:luminance" maskUnits="userSpaceOnUse" x="5" y="5" width="16" height="16">
<path d="M13 19.6667C16.682 19.6667 19.6667 16.682 19.6667 13C19.6667 9.318 16.682 6.33333 13 6.33333C9.31804 6.33333 6.33337 9.318 6.33337 13C6.33337 16.682 9.31804 19.6667 13 19.6667Z" fill="white" stroke="white" stroke-width="1.33333" stroke-linejoin="round"/>
<path d="M11.6667 13V10.6907L13.6667 11.8453L15.6667 13L13.6667 14.1547L11.6667 15.3093V13Z" fill="black" stroke="black" stroke-width="1.33333" stroke-linejoin="round"/>
</mask>
<g mask="url(#mask0_227_945)">
<path d="M5 5H21V21H5V5Z" fill="#34C759"/>
</g>
</g>
<defs>
<clipPath id="clip0_227_945">
<rect width="16" height="16" fill="white" transform="translate(5 5)"/>
</clipPath>
</defs>
</svg>
