<svg width="25" height="24" viewBox="0 0 25 24" fill="none" xmlns="http://www.w3.org/2000/svg">
<path d="M4.09998 18C4.09998 16.9391 4.5214 15.9217 5.27155 15.1716C6.02169 14.4214 7.03911 14 8.09998 14H16.1C17.1608 14 18.1783 14.4214 18.9284 15.1716C19.6785 15.9217 20.1 16.9391 20.1 18C20.1 18.5304 19.8893 19.0391 19.5142 19.4142C19.1391 19.7893 18.6304 20 18.1 20H6.09998C5.56954 20 5.06083 19.7893 4.68576 19.4142C4.31069 19.0391 4.09998 18.5304 4.09998 18Z" stroke="#676D75" stroke-width="1.5" stroke-linejoin="round"/>
<path d="M12.1 10C13.7568 10 15.1 8.65685 15.1 7C15.1 5.34315 13.7568 4 12.1 4C10.4431 4 9.09998 5.34315 9.09998 7C9.09998 8.65685 10.4431 10 12.1 10Z" stroke="#676D75" stroke-width="1.5"/>
</svg>
