<svg width="26" height="26" viewBox="0 0 26 26" fill="none" xmlns="http://www.w3.org/2000/svg">
<rect x="0.5" y="0.5" width="25" height="25" rx="12.5" fill="#E6E6F0"/>
<rect x="0.5" y="0.5" width="25" height="25" rx="12.5" stroke="#EBEBEB"/>
<path fill-rule="evenodd" clip-rule="evenodd" d="M8.99996 6.33333C8.64634 6.33333 8.3072 6.4738 8.05715 6.72385C7.8071 6.9739 7.66663 7.31304 7.66663 7.66666V18.3333C7.66663 18.687 7.8071 19.0261 8.05715 19.2761C8.3072 19.5262 8.64634 19.6667 8.99996 19.6667H17C17.3536 19.6667 17.6927 19.5262 17.9428 19.2761C18.1928 19.0261 18.3333 18.687 18.3333 18.3333V9.276C18.3332 8.9224 18.1927 8.58332 17.9426 8.33333L16.3333 6.72399C16.0833 6.47393 15.7442 6.3334 15.3906 6.33333H8.99996ZM15.8253 12.1953C15.889 12.1338 15.9398 12.0603 15.9747 11.9789C16.0096 11.8976 16.028 11.8101 16.0288 11.7216C16.0296 11.6331 16.0127 11.5453 15.9792 11.4634C15.9457 11.3814 15.8962 11.307 15.8336 11.2444C15.771 11.1818 15.6965 11.1323 15.6146 11.0988C15.5327 11.0653 15.4449 11.0484 15.3564 11.0492C15.2678 11.0499 15.1804 11.0683 15.099 11.1033C15.0177 11.1382 14.9441 11.189 14.8826 11.2527L12.0546 14.0813L11.1113 13.138C10.9856 13.0166 10.8172 12.9494 10.6424 12.9509C10.4676 12.9524 10.3004 13.0225 10.1767 13.1461C10.0531 13.2697 9.98303 13.4369 9.98151 13.6117C9.97999 13.7865 10.0472 13.9549 10.1686 14.0807L11.5353 15.448C11.6034 15.5161 11.6843 15.5702 11.7732 15.6071C11.8622 15.6439 11.9576 15.6629 12.054 15.6629C12.1503 15.6629 12.2457 15.6439 12.3347 15.6071C12.4237 15.5702 12.5045 15.5161 12.5726 15.448L15.8253 12.1953Z" fill="#FF2D55"/>
</svg>
